{
    "asset" : {
        "generator" : "Khronos glTF Blender I/O v1.2.75",
        "version" : "2.0"
    },
    "extensionsUsed" : [
        "KHR_lights_punctual"
    ],
    "extensionsRequired" : [
        "KHR_lights_punctual"
    ],
    "extensions" : {
        "KHR_lights_punctual" : {
            "lights" : [
                {
                    "color" : [
                        1,
                        1,
                        1
                    ],
                    "intensity" : 1.9300000667572021,
                    "type" : "directional",
                    "name" : "Light.shape"
                },
                {
                    "color" : [
                        1,
                        0.4354301691055298,
                        0.059872038662433624
                    ],
                    "intensity" : 176.50006103515625,
                    "type" : "point",
                    "name" : "Point.geo"
                },
                {
                    "color" : [
                        0.0012834331719204783,
                        0.5947971940040588,
                        1
                    ],
                    "intensity" : 1500,
                    "spot" : {
                        "innerConeAngle" : 0.4450589685225559,
                        "outerConeAngle" : 0.5235987901687622
                    },
                    "type" : "spot",
                    "name" : "Spot.shape"
                }
            ]
        }
    },
    "scene" : 0,
    "scenes" : [
        {
            "name" : "Scene",
            "nodes" : [
                1,
                3,
                6,
                8,
                10
            ]
        }
    ],
    "nodes" : [
        {
            "extensions" : {
                "KHR_lights_punctual" : {
                    "light" : 0
                }
            },
            "name" : "Sun_Orientation",
            "rotation" : [
                -0.7071067690849304,
                0,
                0,
                0.7071067690849304
            ]
        },
        {
            "children" : [
                0
            ],
            "name" : "Sun",
            "rotation" : [
                0.01836940087378025,
                0.8113030791282654,
                0.18259991705417633,
                0.5550739765167236
            ],
            "translation" : [
                -1.1585503816604614,
                6.13623046875,
                2.066528558731079
            ]
        },
        {
            "camera" : 0,
            "name" : "Camera_Orientation",
            "rotation" : [
                -0.7071067690849304,
                0,
                0,
                0.7071067690849304
            ]
        },
        {
            "children" : [
                2
            ],
            "name" : "Camera",
            "rotation" : [
                0.5783113837242126,
                0.14255064725875854,
                -0.1034919023513794,
                0.7965705394744873
            ],
            "translation" : [
                3.1179895401000977,
                2.8512122631073,
                8.37803840637207
            ]
        },
        {
            "mesh" : 0,
            "name" : "Cube",
            "translation" : [
                -1,
                0.5,
                0
            ]
        },
        {
            "mesh" : 1,
            "name" : "Sphere",
            "translation" : [
                1,
                0.5,
                0
            ]
        },
        {
            "children" : [
                4,
                5
            ],
            "mesh" : 2,
            "name" : "Plane"
        },
        {
            "extensions" : {
                "KHR_lights_punctual" : {
                    "light" : 1
                }
            },
            "name" : "Pointlight_Orientation",
            "rotation" : [
                -0.7071067690849304,
                0,
                0,
                0.7071067690849304
            ]
        },
        {
            "children" : [
                7
            ],
            "name" : "Pointlight",
            "translation" : [
                2.710181474685669,
                0.2972080707550049,
                0.9968246221542358
            ]
        },
        {
            "extensions" : {
                "KHR_lights_punctual" : {
                    "light" : 2
                }
            },
            "name" : "Spotlight_Orientation",
            "rotation" : [
                -0.7071067690849304,
                0,
                0,
                0.7071067690849304
            ]
        },
        {
            "children" : [
                9
            ],
            "name" : "Spotlight",
            "rotation" : [
                -0.647921085357666,
                0.1773870289325714,
                0.08305854350328445,
                0.7360933423042297
            ],
            "translation" : [
                -1.3604592084884644,
                0.47339147329330444,
                -3.0495083332061768
            ]
        }
    ],
    "cameras" : [
        {
            "name" : "Camera.shape",
            "perspective" : {
                "yfov" : 0.39959652046304894,
                "zfar" : 100,
                "znear" : 0.10000000149011612
            },
            "type" : "perspective"
        }
    ],
    "materials" : [
        {
            "doubleSided" : true,
            "emissiveFactor" : [
                0,
                0,
                0
            ],
            "name" : "Material.002",
            "pbrMetallicRoughness" : {
                "baseColorFactor" : [
                    0.03076605312526226,
                    0.704676628112793,
                    0.8000000715255737,
                    1
                ],
                "metallicFactor" : 0,
                "roughnessFactor" : 0.209090918302536
            }
        },
        {
            "doubleSided" : true,
            "emissiveFactor" : [
                0,
                0,
                0
            ],
            "name" : "Material.001",
            "pbrMetallicRoughness" : {
                "baseColorFactor" : [
                    0.45877066254615784,
                    0,
                    0.008828578516840935,
                    1
                ],
                "metallicFactor" : 1,
                "roughnessFactor" : 0.3136363625526428
            }
        },
        {
            "doubleSided" : true,
            "emissiveFactor" : [
                0,
                0,
                0
            ],
            "name" : "Material.003",
            "pbrMetallicRoughness" : {
                "baseColorFactor" : [
                    0.35663339495658875,
                    0.35663339495658875,
                    0.35663339495658875,
                    1
                ],
                "metallicFactor" : 0,
                "roughnessFactor" : 0.8090909123420715
            }
        }
    ],
    "meshes" : [
        {
            "name" : "Cube.geo",
            "primitives" : [
                {
                    "attributes" : {
                        "POSITION" : 0,
                        "NORMAL" : 1,
                        "TEXCOORD_0" : 2
                    },
                    "indices" : 3,
                    "material" : 0
                }
            ]
        },
        {
            "name" : "Sphere.geo",
            "primitives" : [
                {
                    "attributes" : {
                        "POSITION" : 4,
                        "NORMAL" : 5,
                        "TEXCOORD_0" : 6
                    },
                    "indices" : 7,
                    "material" : 1
                }
            ]
        },
        {
            "name" : "Plane.geo",
            "primitives" : [
                {
                    "attributes" : {
                        "POSITION" : 8,
                        "NORMAL" : 9,
                        "TEXCOORD_0" : 10
                    },
                    "indices" : 11,
                    "material" : 2
                }
            ]
        }
    ],
    "accessors" : [
        {
            "bufferView" : 0,
            "componentType" : 5126,
            "count" : 143,
            "max" : [
                0.5,
                0.5,
                0.5
            ],
            "min" : [
                -0.5,
                -0.5,
                -0.5
            ],
            "type" : "VEC3"
        },
        {
            "bufferView" : 1,
            "componentType" : 5126,
            "count" : 143,
            "type" : "VEC3"
        },
        {
            "bufferView" : 2,
            "componentType" : 5126,
            "count" : 143,
            "type" : "VEC2"
        },
        {
            "bufferView" : 3,
            "componentType" : 5123,
            "count" : 564,
            "type" : "SCALAR"
        },
        {
            "bufferView" : 4,
            "componentType" : 5126,
            "count" : 559,
            "max" : [
                0.5000001192092896,
                0.5,
                0.5000001788139343
            ],
            "min" : [
                -0.49999991059303284,
                -0.5,
                -0.5
            ],
            "type" : "VEC3"
        },
        {
            "bufferView" : 5,
            "componentType" : 5126,
            "count" : 559,
            "type" : "VEC3"
        },
        {
            "bufferView" : 6,
            "componentType" : 5126,
            "count" : 559,
            "type" : "VEC2"
        },
        {
            "bufferView" : 7,
            "componentType" : 5123,
            "count" : 2880,
            "type" : "SCALAR"
        },
        {
            "bufferView" : 8,
            "componentType" : 5126,
            "count" : 4,
            "max" : [
                2.5,
                0,
                2.5
            ],
            "min" : [
                -2.5,
                0,
                -2.5
            ],
            "type" : "VEC3"
        },
        {
            "bufferView" : 9,
            "componentType" : 5126,
            "count" : 4,
            "type" : "VEC3"
        },
        {
            "bufferView" : 10,
            "componentType" : 5126,
            "count" : 4,
            "type" : "VEC2"
        },
        {
            "bufferView" : 11,
            "componentType" : 5123,
            "count" : 6,
            "type" : "SCALAR"
        }
    ],
    "bufferViews" : [
        {
            "buffer" : 0,
            "byteLength" : 1716,
            "byteOffset" : 0
        },
        {
            "buffer" : 0,
            "byteLength" : 1716,
            "byteOffset" : 1716
        },
        {
            "buffer" : 0,
            "byteLength" : 1144,
            "byteOffset" : 3432
        },
        {
            "buffer" : 0,
            "byteLength" : 1128,
            "byteOffset" : 4576
        },
        {
            "buffer" : 0,
            "byteLength" : 6708,
            "byteOffset" : 5704
        },
        {
            "buffer" : 0,
            "byteLength" : 6708,
            "byteOffset" : 12412
        },
        {
            "buffer" : 0,
            "byteLength" : 4472,
            "byteOffset" : 19120
        },
        {
            "buffer" : 0,
            "byteLength" : 5760,
            "byteOffset" : 23592
        },
        {
            "buffer" : 0,
            "byteLength" : 48,
            "byteOffset" : 29352
        },
        {
            "buffer" : 0,
            "byteLength" : 48,
            "byteOffset" : 29400
        },
        {
            "buffer" : 0,
            "byteLength" : 32,
            "byteOffset" : 29448
        },
        {
            "buffer" : 0,
            "byteLength" : 12,
            "byteOffset" : 29480
        }
    ],
    "buffers" : [
        {
            "byteLength" : 29492,
            "uri" : "data:application/octet-stream;base64,"
        }
    ]
}
